<svg width="20" height="33" viewBox="0 0 20 33" fill="none" xmlns="http://www.w3.org/2000/svg">
<path d="M18.75 20.5055H12.9609V1.57581C12.9609 1.23206 12.6797 0.950806 12.3359 0.950806H7.64842C7.30467 0.950806 7.02342 1.23206 7.02342 1.57581V20.5055H1.24998C0.726544 20.5055 0.437482 21.1071 0.757795 21.5133L9.5078 32.5836C9.56626 32.6583 9.64096 32.7187 9.72623 32.7603C9.81151 32.8018 9.90512 32.8234 9.99998 32.8234C10.0948 32.8234 10.1885 32.8018 10.2737 32.7603C10.359 32.7187 10.4337 32.6583 10.4922 32.5836L19.2422 21.5133C19.5625 21.1071 19.2734 20.5055 18.75 20.5055V20.5055Z" fill="#ED4C5C"/>
</svg>
